<svg xmlns="http://www.w3.org/2000/svg" version="1.1" viewBox="0 0 1400 690">
  <title>
The titlepage for the Standard Ebooks edition of The Phantom of the Opera, by Gaston Leroux. Translated by Alexander Teixeira de Mattos.  </title>
  <!-- Loaded SVG font from path "./LeagueSpartan-Bold.svg" -->
  <!-- Loaded SVG font from path "./OFLGoudyStM-Italic.svg" -->
  <path style="text-anchor: middle; letter-spacing: 5px" d="M320.7543798,68.245613l0-15.4385968l54.2690068,0l0,15.4385968l-18.3391816,0l0,61.754387l-17.5906436,0l0-61.754387l-18.3391816,0zM403.9766034,99.0292392l0,30.9707608l-17.5906436,0l0-77.1929838l17.5906436,0l0,30.7836263l24.8888893,0l0-30.7836263l17.5906436,0l0,77.1929838l-17.5906436,0l0-30.9707608l-24.8888893,0zM506.8479501,52.8070162l0,15.4385968l-26.5730999,0l0,15.3450295l25.4502928,0l0,15.4385968l-25.4502928,0l0,15.532164l26.5730999,0l0,15.4385968l-44.1637435,0l0-77.1929838l44.1637435,0zM552.4970735,52.8070162l28.1637432,0c15.0643277,0,26.3859654,7.766082,26.3859654,23.7660823c0,15.906433-11.3216376,24.7953221-26.3859654,24.7953221l-10.5730996,0l0,28.6315794l-17.5906436,0l0-77.1929838z  M570.0877171,87.3333326l4.9590644,0c6.9239767,0,13.4736844-2.3391813,13.4736844-10.1988306c0-7.9532165-6.5497077-10.2923978-13.4736844-10.2923978l-4.9590644,0l0,20.4912284zM637.4035077,99.0292392l0,30.9707608l-17.5906436,0l0-77.1929838l17.5906436,0l0,30.7836263l24.8888893,0l0-30.7836263l17.5906436,0l0,77.1929838l-17.5906436,0l0-30.9707608l-24.8888893,0zM735.31579,52.8070162l31.1578953,77.1929838l-18.9005851,0l-5.7076024-15.4385968l-29.3801175,0l-5.7076024,15.4385968l-18.9005851,0l31.1578953-77.1929838l16.280702,0z  M735.8771935,99.1228065l-8.6081873-22.4561407l-0.1871345,0l-8.6081873,22.4561407l17.4035091,0zM792.058481,82.0935664l0,47.9064336l-17.5906436,0l0-77.1929838l17.5906436,0l30.690059,47.9064336l0.1871345,0l0-47.9064336l17.5906436,0l0,77.1929838l-17.5906436,0l-30.690059-47.9064336l-0.1871345,0zM847.3976631,68.245613l0-15.4385968l54.2690068,0l0,15.4385968l-18.3391816,0l0,61.754387l-17.5906436,0l0-61.754387l-18.3391816,0zM906.5731027,91.3567245c0-22.549708,17.6842108-39.9532171,38.9239773-39.9532171c21.426901,0,38.83041,17.4035091,38.83041,39.9532171s-16.6549711,40.0467843-38.83041,40.0467843c-22.8304098,0-38.9239773-17.4970763-38.9239773-40.0467843z  M925.5672551,91.3567245c0,11.5087721,5.5204679,23.0175443,19.9298249,23.0175443c14.035088,0,19.8362577-11.5087721,19.8362577-23.0175443s-6.1754387-23.0175443-19.8362577-23.0175443c-13.5672517,0-19.9298249,11.5087721-19.9298249,23.0175443zM1060.9064386,130l-3.6491229-45.7543868l-0.4678363,0l-15.8128658,45.2865505l-10.4795323,0l-15.8128658-45.2865505l-0.4678363,0l-3.6491229,45.7543868l-17.5906436,0l6.9239767-77.1929838l18.7134506,0l17.1228073,44.5380125l17.1228073-44.5380125l18.7134506,0l6.9239767,77.1929838l-17.5906436,0z"/>
  <path style="text-anchor: middle; letter-spacing: 5px" d="M323.6344968,191.3567245c0-22.549708,17.6842108-39.9532171,38.9239773-39.9532171c21.426901,0,38.83041,17.4035091,38.83041,39.9532171s-16.6549711,40.0467843-38.83041,40.0467843c-22.8304098,0-38.9239773-17.4970763-38.9239773-40.0467843z  M342.6286492,191.3567245c0,11.5087721,5.5204679,23.0175443,19.9298249,23.0175443c14.035088,0,19.8362577-11.5087721,19.8362577-23.0175443s-6.1754387-23.0175443-19.8362577-23.0175443c-13.5672517,0-19.9298249,11.5087721-19.9298249,23.0175443zM458.7865459,152.8070162l0,15.4385968l-27.0409361,0l0,15.3450295l24.9824566,0l0,15.4385968l-24.9824566,0l0,30.9707608l-17.5906436,0l0-77.1929838l44.6315797,0zM493.3947334,168.245613l0-15.4385968l54.2690068,0l0,15.4385968l-18.3391816,0l0,61.754387l-17.5906436,0l0-61.754387l-18.3391816,0zM576.616957,199.0292392l0,30.9707608l-17.5906436,0l0-77.1929838l17.5906436,0l0,30.7836263l24.8888893,0l0-30.7836263l17.5906436,0l0,77.1929838l-17.5906436,0l0-30.9707608l-24.8888893,0zM679.4883038,152.8070162l0,15.4385968l-26.5730999,0l0,15.3450295l25.4502928,0l0,15.4385968l-25.4502928,0l0,15.532164l26.5730999,0l0,15.4385968l-44.1637435,0l0-77.1929838l44.1637435,0zM721.6754388,191.3567245c0-22.549708,17.6842108-39.9532171,38.9239773-39.9532171c21.426901,0,38.83041,17.4035091,38.83041,39.9532171s-16.6549711,40.0467843-38.83041,40.0467843c-22.8304098,0-38.9239773-17.4970763-38.9239773-40.0467843z  M740.6695912,191.3567245c0,11.5087721,5.5204679,23.0175443,19.9298249,23.0175443c14.035088,0,19.8362577-11.5087721,19.8362577-23.0175443s-6.1754387-23.0175443-19.8362577-23.0175443c-13.5672517,0-19.9298249,11.5087721-19.9298249,23.0175443zM812.1959082,152.8070162l28.1637432,0c15.0643277,0,26.3859654,7.766082,26.3859654,23.7660823c0,15.906433-11.3216376,24.7953221-26.3859654,24.7953221l-10.5730996,0l0,28.6315794l-17.5906436,0l0-77.1929838z  M829.7865518,187.3333326l4.9590644,0c6.9239767,0,13.4736844-2.3391813,13.4736844-10.1988306c0-7.9532165-6.5497077-10.2923978-13.4736844-10.2923978l-4.9590644,0l0,20.4912284zM923.6754422,152.8070162l0,15.4385968l-26.5730999,0l0,15.3450295l25.4502928,0l0,15.4385968l-25.4502928,0l0,15.532164l26.5730999,0l0,15.4385968l-44.1637435,0l0-77.1929838l44.1637435,0zM938.7807055,152.8070162l27.6023397,0c14.3157897,0,25.1695911,7.766082,25.1695911,22.923977c0,11.6023394-6.3625732,19.3684214-15.8128658,22.3625735l26.5730999,31.9064333l-22.3625735,0l-23.5789478-30.5029245l0,30.5029245l-17.5906436,0l0-77.1929838z  M956.3713491,187.0526308l2.0584796,0c6.643275,0,14.5964915-0.4678363,14.5964915-10.1052633s-7.9532165-10.1052633-14.5964915-10.1052633l-2.0584796,0l0,20.2105267zM1049.9795378,152.8070162l31.1578953,77.1929838l-18.9005851,0l-5.7076024-15.4385968l-29.3801175,0l-5.7076024,15.4385968l-18.9005851,0l31.1578953-77.1929838l16.280702,0z  M1050.5409413,199.1228065l-8.6081873-22.4561407l-0.1871345,0l-8.6081873,22.4561407l17.4035091,0z"/>
  <path style="text-anchor: middle; letter-spacing: 5px" d="M409.4736867,357.5789477l0,12.5614034c-3.1578947,14.6666665-15.3684209,20.9122805-26.7368419,20.9122805c-15.5789472,0-28.210526-13.4035086-28.210526-29.964912c0-16.6315788,11.9298244-30.0350874,28.210526-30.0350874c10.1754385,0,17.2631577,3.7894736,22.3157893,9.8947367l-8.6315789,9.4736841c-3.368421-5.4035087-7.7894736-7.4385964-12.9122806-7.4385964c-8.1403508,0-14.736842,8.0701754-14.736842,18.105263c0,9.8245613,6.5964912,17.8245612,14.736842,17.8245612c6.3157894,0,12.5614034-4.0701754,12.5614034-11.1578946l-13.3333332,0l0-10.1754385l26.7368419,0zM449.7017565,332.1052637l23.3684208,57.8947363l-14.1754385,0l-4.2807017-11.5789473l-22.0350875,0l-4.2807017,11.5789473l-14.1754385,0l23.3684208-57.8947363l12.2105262,0z  M450.1228092,366.8421055l-6.4561403-16.8421051l-0.1403509,0l-6.4561403,16.8421051l13.0526315,0zM500.2456157,331.0526321c10.5263157,0,17.9649121,5.4736842,17.9649121,5.4736842l-5.3333333,10.5263157s-5.7543859-4-11.7192981-4c-4.491228,0-6.8771929,2.0350877-6.8771929,5.1929824c0,3.2280701,5.4736842,5.5438596,12.0701753,8.3508771c6.4561403,2.7368421,13.5438595,8.2105262,13.5438595,15.7894735c0,13.8245613-10.5263157,18.6666665-21.8245612,18.6666665c-13.5438595,0-21.7543858-7.6491227-21.7543858-7.6491227l6.5964912-11.0877192s7.7192982,6.5263157,14.1754385,6.5263157c2.877193,0,8.3508771-0.2807018,8.3508771-5.6842105c0-4.2105263-6.1754385-6.1052631-13.0526315-9.5438596c-6.9473684-3.4385965-11.0175438-8.8421052-11.0175438-14.8771928c0-10.8070174,9.5438596-17.6842104,18.8771928-17.6842104zM524.0526331,343.684211l0-11.5789473l40.701754,0l0,11.5789473l-13.7543858,0l0,46.315789l-13.1929823,0l0-46.315789l-13.7543858,0zM569.6842117,361.0175441c0-16.9122805,13.2631578-29.964912,29.1929822-29.964912c16.0701753,0,29.1228067,13.0526315,29.1228067,29.964912s-12.491228,30.0350874-29.1228067,30.0350874c-17.1228069,0-29.1929822-13.1228069-29.1929822-30.0350874z  M583.9298256,361.0175441c0,8.6315789,4.1403508,17.2631577,14.9473683,17.2631577c10.5263157,0,14.8771928-8.6315789,14.8771928-17.2631577s-4.6315789-17.2631577-14.8771928-17.2631577c-10.1754385,0-14.9473683,8.6315789-14.9473683,17.2631577zM652.0175443,354.0701758l0,35.9298242l-13.1929823,0l0-57.8947363l13.1929823,0l23.0175436,35.9298242l0.1403509,0l0-35.9298242l13.1929823,0l0,57.8947363l-13.1929823,0l-23.0175436-35.9298242l-0.1403509,0zM739.1403506,332.1052637l0,46.315789l19.9298244,0l0,11.5789473l-33.1228067,0l0-57.8947363l13.1929823,0zM803.7192974,332.1052637l0,11.5789473l-19.9298244,0l0,11.5087718l19.0877191,0l0,11.5789473l-19.0877191,0l0,11.6491227l19.9298244,0l0,11.5789473l-33.1228067,0l0-57.8947363l33.1228067,0zM816.2982447,332.1052637l20.7017542,0c10.736842,0,18.8771928,5.8245613,18.8771928,17.1929823c0,8.7017543-4.7719298,14.5263157-11.859649,16.7719297l19.9298244,23.9298243l-16.7719297,0l-17.6842104-22.8771928l0,22.8771928l-13.1929823,0l0-57.8947363z  M829.491227,357.789474l1.5438596,0c4.9824561,0,10.9473683-0.3508772,10.9473683-7.5789473s-5.9649122-7.5789473-10.9473683-7.5789473l-1.5438596,0l0,15.1578946zM868.947367,361.0175441c0-16.9122805,13.2631578-29.964912,29.1929822-29.964912c16.0701753,0,29.1228067,13.0526315,29.1228067,29.964912s-12.491228,30.0350874-29.1228067,30.0350874c-17.1228069,0-29.1929822-13.1228069-29.1929822-30.0350874z  M883.1929809,361.0175441c0,8.6315789,4.1403508,17.2631577,14.9473683,17.2631577c10.5263157,0,14.8771928-8.6315789,14.8771928-17.2631577s-4.6315789-17.2631577-14.8771928-17.2631577c-10.1754385,0-14.9473683,8.6315789-14.9473683,17.2631577zM982.5789449,332.1052637l0,37.333333c0,14.3157893-7.859649,21.6140349-22.596491,21.6140349s-22.596491-7.2982455-22.596491-21.6140349l0-37.333333l13.1929823,0l0,33.4736839c0,9.6842104,2.9473684,12.491228,9.4035087,12.491228s9.4035087-2.8070175,9.4035087-12.491228l0-33.4736839l13.1929823,0zM1049.4736812,390l-17.0526314,0l-13.6842104-19.7192981l-13.6842104,19.7192981l-16.350877,0l21.8947366-31.1578944l-18.2456139-26.7368419l15.7192981,0l10.6666666,15.7894735l10.6666666-15.7894735l16.4210525,0l-18.9473682,26.7368419z"/>
  <path style="text-anchor: middle; letter-spacing: 0" d="M594.729015,563.4218921c0-0.8501594,1.6153028-0.8076514,3.4856534-2.763018c1.7003188-1.7853347,1.7853347-2.3379383,2.4654622-2.3379383c0.2125398,0,0.4250797,0.1275239,0.4250797,0.5100956c0,0.5526036-0.7651434,2.5504781-0.7651434,3.1880977c0,0.2550478,0.0850159,0.2975558,1.4877789,0.2975558c1.6578108,0,1.9978745-0.042508,2.4654622-0.042508c0.8926673,0,1.1052072,0.2975558,1.1052072,0.8076514c0,0.9776833-0.2550478,1.2327311-1.0201913,1.2327311c-0.6801275,0-2.5079702-0.2125398-3.4431455-0.2125398c-1.2327311,0-1.1052072,0.7651434-1.360255,2.5079702c-0.3825717,2.6354941-1.360255,8.16153-1.360255,8.8416575c0,2.2529224,1.5727948,2.3379383,1.7428267,2.3379383c2.3379383,0,3.3156216-1.8703506,3.9957491-1.8703506c0.1275239,0,0.4675877,0,0.4675877,0.5951116c0,1.1052072-3.6131774,3.9957491-6.2486714,3.9957491c-1.1477152,0-2.72051-0.6801275-2.72051-3.9957491c0-3.9107331,1.7853347-10.7970241,1.7853347-11.9447393c0-0.8926673-2.5079702,0.042508-2.5079702-1.1477152zM606.8437862,567.4176412c0-4.8459085,3.6131774-5.8660997,3.9957491-5.8660997c0.8926673,0,1.317747,0.8076514,1.5727948,1.4877789c1.0626992,2.763018,1.1052072,2.8055259,1.1902231,2.8055259c0.2975558,0,2.4229542-4.3783208,5.5685439-4.3783208c1.1052072,0,1.5727948,0.7226355,1.5727948,1.317747c0,0.5526036-0.3400638,1.1052072-0.4675877,1.5727948c-0.0850159,0.2975558-0.1700319,1.6153028-0.9351753,1.6153028c-0.9351753,0-0.7651434-1.7853347-2.2954303-1.7853347c-1.9128586,0-2.9755578,5.5685439-3.1880977,7.3538786l-0.2125398,1.402763c-0.9351753,7.2263547-0.8501594,7.2263547-2.3804463,7.2263547l-0.2125398,0c-0.4250797,0-1.2752391-0.0850159-1.2752391-1.1052072c0-1.7003188,1.8278427-7.9489902,1.8278427-11.1370879c0-2.1253984-0.6801275-2.8905419-1.4452709-2.8905419c-1.7428267,0-2.0828905,2.5504781-2.3379383,2.8480339c-0.1275239,0.1275239-0.2550478,0.2550478-0.4675877,0.2550478c-0.1700319,0-0.5100956-0.1275239-0.5100956-0.7226355zM620.4463362,575.1540915c0-2.3804463,1.0626992-4.8034005,2.3804463-6.9287989c1.5302869-2.4229542,3.4856534-4.4633367,5.7385758-5.526036c1.1477152-0.5526036,1.9978745-0.7651434,3.1030817-0.7651434c1.317747,0,2.2104144,0.4675877,3.6131774,0.4675877c0.8501594,0,1.360255-2.0828905,2.2104144-2.0828905c0.2550478,0,0.4675877,0.1700319,0.4675877,0.6376195c0,0.6801275-0.5526036,1.7003188-0.8501594,2.9330499c-0.3825717,1.5727948-0.6376195,3.5281614-0.9776833,5.44102c-0.3400638,1.8703506-0.7651434,3.8257172-0.7651434,5.44102c0,1.1052072,0.6376195,2.5079702,1.4452709,2.5079702c1.402763,0,2.2954303-2.763018,3.1030817-2.763018c0.3400638,0,0.3825717,0.2975558,0.3825717,0.4675877c0,0.4250797-0.2125398,1.0626992-0.7651434,1.8278427c-1.0626992,1.5302869-2.9755578,3.4856534-4.123273,3.4856534c-2.72051,0-2.3379383-4.7608925-2.6354941-4.7608925c-0.2125398,0-3.7407013,5.1009563-7.7789583,5.1009563s-4.5483527-2.72051-4.5483527-5.483528z  M623.421894,574.8990437c0,2.1253984,1.5302869,3.4006375,3.3156216,3.4006375c3.0605738,0,5.0584483-3.0605738,5.44102-3.8257172c1.0201913-2.0403825,2.1679064-9.8618488,2.1679064-9.9893727c0-1.1902231-1.9128586-1.4877789-2.8055259-1.4877789c-1.7428267,0-3.9957491,1.2752391-5.2709881,3.4431455c-1.2327311,2.0403825-2.2529224,3.9532411-2.6354941,6.1636555c-0.1275239,0.7651434-0.2125398,1.5302869-0.2125398,2.2954303zM641.7003207,566.354942c0-1.6578108,2.5504781-4.8459085,4.165781-4.8459085c2.4654622,0,1.5727948,4.4633367,1.9553666,4.4633367c0.2550478,0,0.5526036-0.9351753,2.1253984-2.1253984c1.1477152-0.8926673,3.4006375-2.4229542,5.1859722-2.4229542c2.9755578,0,3.5706694,2.6354941,3.5706694,5.3134961c0,2.9755578-0.7226355,7.4814025-0.7226355,8.9266735c0,1.1902231,0.3400638,1.5302869,0.8076514,1.5302869c0.7226355,0,1.7003188-0.9351753,1.7003188-0.9351753c0.5100956-0.6376195,0.6801275-1.1477152,1.317747-1.1477152c0.2975558,0,0.3825717,0.2550478,0.3825717,0.5100956c0,1.6578108-3.7407013,4.6333686-5.6110519,4.6333686c-0.8501594,0-1.5727948-1.1902231-1.5727948-2.678002c0-3.2306056,0.8926673-8.9266735,0.8926673-10.4994683c0-0.6801275-0.2125398-3.4856534-2.9755578-3.4856534c-0.9776833,0-1.7853347,0.4675877-2.763018,1.8703506c-1.8278427,2.5929861-1.317747,2.2104144-2.3379383,7.6939424c-1.0626992,5.7385758-0.7651434,5.2284802-0.8501594,5.8235917c-0.1275239,0.9351753-0.4675877,1.1052072-1.5727948,1.1052072c-1.1477152,0-1.4877789-0.0850159-1.4877789-1.317747c0-1.7853347,1.8703506-8.3740699,1.8703506-11.6471835c0-1.4877789-0.5526036-2.3379383-0.9776833-2.3379383c-1.317747,0-1.7853347,2.3804463-2.72051,2.3804463c-0.2975558,0-0.3825717-0.3400638-0.3825717-0.8076514zM663.6769406,577.7045697c0-1.317747,0.8501594-1.5302869,1.360255-1.5302869c2.1679064,0,1.4452709,2.9330499,4.038257,2.9330499c3.1030817,0,3.4006375-2.2104144,3.4006375-2.72051c0-1.9978745-1.402763-3.2306056-2.9330499-4.7608925c-1.7003188-1.7428267-3.3156216-2.8480339-3.3156216-5.3985121c0-2.8480339,2.4654622-4.8034005,5.7810838-4.8034005c2.2954303,0,3.9532411,0.5526036,3.9532411,2.2104144c0,1.317747-1.402763,1.4452709-1.6153028,1.4452709c-1.5302869,0-1.7003188-2.3804463-3.3581295-2.3804463c-1.6153028,0-2.2529224,0.9776833-2.2529224,2.2529224c0,1.6153028,2.3379383,3.3581295,3.3581295,4.4633367c1.317747,1.4877789,2.9330499,2.678002,2.9330499,5.526036c0,1.5302869-1.1902231,5.5685439-6.6312431,5.5685439c-1.6578108,0-4.7183845-0.5526036-4.7183845-2.8055259zM678.7247616,576.3443147c0-2.4229542,1.1052072-7.4388946,1.1902231-8.1190221c0.3825717-2.678002,0.5951116-5.6960678,1.0201913-8.4165778c0.7226355-4.5908606,1.360255-8.4165778,1.360255-8.9266735s-0.4250797-0.8501594-1.0626992-0.8501594s-0.7226355,0.042508-1.2327311,0.042508c-0.8501594,0-1.2327311-0.1275239-1.2327311-0.5951116c0-0.2125398,0.0850159-0.5526036,0.6376195-0.5951116c3.1030817-0.2125398,4.038257-0.6376195,5.1434642-0.6376195c0.6801275,0,0.8926673,0.2550478,0.8926673,0.6801275c0,0.5951116-0.2975558,1.1477152-0.4250797,1.9553666c-1.5727948,8.246546-0.8501594,6.6737511-2.2104144,15.8129644c-0.7226355,5.0159403-1.2327311,7.6939424-1.2327311,9.1392133s0.1275239,1.6578108,0.6801275,1.6578108c2.3379383,0,2.763018-3.0180658,3.8682252-3.0180658c0.2975558,0,0.5100956,0.2550478,0.5100956,0.6801275s-1.1052072,1.8703506-2.1253984,3.0605738c-1.1052072,1.2752391-2.8905419,2.1253984-3.6981933,2.1253984c-0.8501594,0-2.0828905,0-2.0828905-3.9957491zM689.2242299,575.1540915c0-2.3804463,1.0626992-4.8034005,2.3804463-6.9287989c1.5302869-2.4229542,3.4856534-4.4633367,5.7385758-5.526036c1.1477152-0.5526036,1.9978745-0.7651434,3.1030817-0.7651434c1.317747,0,2.2104144,0.4675877,3.6131774,0.4675877c0.8501594,0,1.360255-2.0828905,2.2104144-2.0828905c0.2550478,0,0.4675877,0.1700319,0.4675877,0.6376195c0,0.6801275-0.5526036,1.7003188-0.8501594,2.9330499c-0.3825717,1.5727948-0.6376195,3.5281614-0.9776833,5.44102c-0.3400638,1.8703506-0.7651434,3.8257172-0.7651434,5.44102c0,1.1052072,0.6376195,2.5079702,1.4452709,2.5079702c1.402763,0,2.2954303-2.763018,3.1030817-2.763018c0.3400638,0,0.3825717,0.2975558,0.3825717,0.4675877c0,0.4250797-0.2125398,1.0626992-0.7651434,1.8278427c-1.0626992,1.5302869-2.9755578,3.4856534-4.123273,3.4856534c-2.72051,0-2.3379383-4.7608925-2.6354941-4.7608925c-0.2125398,0-3.7407013,5.1009563-7.7789583,5.1009563s-4.5483527-2.72051-4.5483527-5.483528z  M692.1997877,574.8990437c0,2.1253984,1.5302869,3.4006375,3.3156216,3.4006375c3.0605738,0,5.0584483-3.0605738,5.44102-3.8257172c1.0201913-2.0403825,2.1679064-9.8618488,2.1679064-9.9893727c0-1.1902231-1.9128586-1.4877789-2.8055259-1.4877789c-1.7428267,0-3.9957491,1.2752391-5.2709881,3.4431455c-1.2327311,2.0403825-2.2529224,3.9532411-2.6354941,6.1636555c-0.1275239,0.7651434-0.2125398,1.5302869-0.2125398,2.2954303zM711.1158339,563.4218921c0-0.8501594,1.6153028-0.8076514,3.4856534-2.763018c1.7003188-1.7853347,1.7853347-2.3379383,2.4654622-2.3379383c0.2125398,0,0.4250797,0.1275239,0.4250797,0.5100956c0,0.5526036-0.7651434,2.5504781-0.7651434,3.1880977c0,0.2550478,0.0850159,0.2975558,1.4877789,0.2975558c1.6578108,0,1.9978745-0.042508,2.4654622-0.042508c0.8926673,0,1.1052072,0.2975558,1.1052072,0.8076514c0,0.9776833-0.2550478,1.2327311-1.0201913,1.2327311c-0.6801275,0-2.5079702-0.2125398-3.4431455-0.2125398c-1.2327311,0-1.1052072,0.7651434-1.360255,2.5079702c-0.3825717,2.6354941-1.360255,8.16153-1.360255,8.8416575c0,2.2529224,1.5727948,2.3379383,1.7428267,2.3379383c2.3379383,0,3.3156216-1.8703506,3.9957491-1.8703506c0.1275239,0,0.4675877,0,0.4675877,0.5951116c0,1.1052072-3.6131774,3.9957491-6.2486714,3.9957491c-1.1477152,0-2.72051-0.6801275-2.72051-3.9957491c0-3.9107331,1.7853347-10.7970241,1.7853347-11.9447393c0-0.8926673-2.5079702,0.042508-2.5079702-1.1477152zM723.3581289,573.7513286c0-3.6556853,1.8703506-7.3113707,4.8034005-10.0318807c1.5727948-1.4877789,3.5281614-2.2529224,5.9086077-2.2529224c1.9978745,0,3.6981933,1.2752391,3.6981933,3.1455897c0,3.0605738-3.3156216,4.8034005-4.123273,5.1434642c-0.3825717,0.1700319-2.678002,1.1052072-6.6737511,1.1477152c-0.5951116,0-0.7226355,0.6376195-0.7226355,1.7428267c0,3.1880977,1.9128586,5.3134961,6.1211475,5.3134961c2.4229542,0,4.123273-1.8278427,4.5908606-1.8278427c0.3400638,0,0.5100956,0.1700319,0.5100956,0.4250797c0,0.9776833-3.6981933,3.9532411-7.3963866,3.9532411c-5.3985121,0-6.7162591-2.9755578-6.7162591-6.7587671z  M726.8437824,569.3304998c0,0.2975558,0.0850159,0.8501594,0.3825717,0.8501594c4.123273,0,7.6089264-2.763018,7.6089264-5.44102c0-1.6153028-1.5302869-1.9978745-2.2529224-1.9978745c-1.0626992,0-2.3804463,0.8501594-3.4856534,1.9978745c-1.2752391,1.317747-2.2529224,4.038257-2.2529224,4.5908606zM739.8087129,574.6865039c0-6.5887352,5.526036-12.9224225,10.5844843-12.9224225c1.1052072,0,1.9553666,0.5526036,3.1455897,0.5526036c0.1275239,0,1.5302869-11.1795958,1.5302869-11.4771516c0-0.6376195-0.5951116-1.0626992-1.2327311-1.0626992c-0.4675877,0-1.4452709,0.042508-1.4877789,0.042508c-0.4250797,0-0.6801275-0.1700319-0.6801275-0.4675877c0-0.7226355,1.4877789-0.5526036,2.678002-0.8501594c2.3804463-0.5951116,2.1253984-0.6801275,3.2731136-0.6801275c0.3825717,0,0.6801275,0.3400638,0.6801275,0.7226355c0,1.1052072-0.4250797,2.4654622-2.8055259,19.8512215c-0.4675877,3.2306056-0.8926673,5.9086077-0.8926673,7.1838467c0,0.9351753,0.1275239,1.8278427,1.1052072,1.8278427c1.8703506,0,2.8480339-2.6354941,3.5281614-2.6354941c0.3400638,0,0.4675877,0.2125398,0.4675877,0.3825717c0,0.8926673-2.678002,5.1859722-5.44102,5.1859722c-2.9755578,0-1.9978745-4.7608925-2.5929861-4.7608925c-0.3825717,0-2.5504781,4.7608925-6.7587671,4.7608925c-3.6131774,0-5.1009563-2.4654622-5.1009563-5.6535599z  M742.7842707,573.4962808c0,2.4654622,1.0201913,4.3783208,3.6131774,4.3783208c1.5302869,0,3.1880977-0.8076514,4.2933049-2.2104144c1.7003188-2.1253984,2.3379383-9.606801,2.3379383-11.3071197c0-1.1477152-1.7003188-1.7003188-2.8480339-1.7003188c-3.9107331,0-7.3963866,6.3761953-7.3963866,10.8395321zM771.05207,576.9819342c0-2.72051,0.9776833-7.1413388,1.5727948-10.5844843c0.7651434-4.4208288,1.2752391-8.5441017,1.9128586-11.6896914c0.3825717-1.8278427,0.6376195-3.3156216,0.6376195-4.3358128c0-0.2125398-0.2125398-0.5100956-1.0626992-0.5100956c-0.6376195,0-1.1052072,0.0850159-1.7428267,0.0850159c-0.4675877,0-0.8076514,0-0.8076514-0.5951116c0-0.8501594,1.1902231-0.8076514,3.1455897-1.0626992c1.6578108-0.2125398,2.4229542-0.4675877,2.678002-0.4675877c0.4675877,0,0.8076514,0.2975558,0.8076514,0.7651434c0,0.7651434-2.72051,13.4325182-2.72051,16.4930919c0,0.2975558,0.1275239,0.6376195,0.2125398,0.6376195c0.5951116,0,2.5929861-3.9532411,7.4814025-3.9532411c3.1880977,0,4.6758766,2.6354941,4.6758766,5.3985121c0,5.7810838-5.0159403,13.3900102-11.6046755,13.3900102c-2.5079702,0-5.1859722-1.1052072-5.1859722-3.5706694z  M773.857596,576.4718386c0,1.4452709,0.6376195,2.8905419,3.2731136,2.8905419c3.8257172,0,7.7364503-6.1211475,7.7364503-11.0095639c0-2.3804463-1.8278427-4.3358128-4.165781-4.3358128c-1.0201913,0-3.7832092,0.4250797-5.1434642,4.123273c-1.2327311,3.3581295-1.7003188,7.9064822-1.7003188,8.3315619zM789.5005285,585.3134961c0-0.7226355,0.6376195-1.402763,1.360255-1.402763c1.7003188,0,1.7428267,1.402763,3.6981933,1.402763c2.4654622,0,5.2709881-5.44102,5.2709881-7.0563228c0-2.3804463-4.6758766-13.3475022-6.9287989-13.3475022c-2.4654622,0-1.5727948,3.1880977-2.8480339,3.1880977c-0.2550478,0-0.4250797-0.2125398-0.4250797-0.9351753c0-1.7853347,0.8501594-5.483528,3.4431455-5.483528c4.123273,0,8.16153,12.0722632,8.6291177,12.0722632c0.5951116,0,1.5302869-4.5483527,1.5302869-7.3963866c0-1.2327311-1.0626992-2.0828905-1.0626992-3.2306056c0-0.7651434,0.4250797-1.5727948,1.4452709-1.5727948c0.9351753,0,1.6578108,0.9351753,1.6578108,2.2529224c0,1.9128586-1.0201913,7.7789583-3.5281614,14.1126457c-1.9978745,5.0584483-4.7183845,9.9043568-8.7141336,9.9043568c-1.8278427,0-3.5281614-0.5526036-3.5281614-2.5079702z"/>
  <path style="text-anchor: middle; letter-spacing: 5px" d="M244.7339113,601.4035081l15.5789476,38.5964919l-9.4502926,0l-2.8538012-7.7192984l-14.6900587,0l-2.8538012,7.7192984l-9.4502926,0l15.5789476-38.5964919l8.140351,0z  M245.014613,624.5614032l-4.3040936-11.2280704l-0.0935673,0l-4.3040936,11.2280704l8.7017545,0zM275.6052567,601.4035081l0,30.8771935l13.2865499,0l0,7.7192984l-22.0818717,0l0-38.5964919l8.7953218,0zM320.3245557,601.4035081l0,7.7192984l-13.2865499,0l0,7.6725148l12.7251464,0l0,7.7192984l-12.7251464,0l0,7.766082l13.2865499,0l0,7.7192984l-22.0818717,0l0-38.5964919l22.0818717,0zM366.4941471,640l-11.3684213,0l-9.1228072-13.1461991l-9.1228072,13.1461991l-10.900585,0l14.5964915-20.7719302l-12.1637429-17.8245617l10.4795323,0l7.1111112,10.526316l7.1111112-10.526316l10.9473686,0l-12.6315792,17.8245617zM392.3128609,601.4035081l15.5789476,38.5964919l-9.4502926,0l-2.8538012-7.7192984l-14.6900587,0l-2.8538012,7.7192984l-9.4502926,0l15.5789476-38.5964919l8.140351,0z  M392.5935626,624.5614032l-4.3040936-11.2280704l-0.0935673,0l-4.3040936,11.2280704l8.7017545,0zM423.1842064,616.0467832l0,23.9532168l-8.7953218,0l0-38.5964919l8.7953218,0l15.3450295,23.9532168l0.0935673,0l0-23.9532168l8.7953218,0l0,38.5964919l-8.7953218,0l-15.3450295-23.9532168l-0.0935673,0zM458.0321601,601.4035081l11.1812867,0c10.5730996,0,19.4619886,8.0467838,19.4619886,19.2748541c0,11.274854-8.8421054,19.3216378-19.4619886,19.3216378l-11.1812867,0l0-38.5964919z  M466.8274819,632.1403507l1.3567252,0c6.5029241,0,10.9473686-4.9590644,10.9941522-11.4152049c0-6.4561405-4.4444445-11.4619885-10.9941522-11.4619885l-1.3567252,0l0,22.8771934zM519.6403483,601.4035081l0,7.7192984l-13.2865499,0l0,7.6725148l12.7251464,0l0,7.7192984l-12.7251464,0l0,7.766082l13.2865499,0l0,7.7192984l-22.0818717,0l0-38.5964919l22.0818717,0zM529.6929799,601.4035081l13.8011698,0c7.1578949,0,12.5847955,3.883041,12.5847955,11.4619885c0,5.8011697-3.1812866,9.6842107-7.9064329,11.1812867l13.2865499,15.9532167l-11.1812867,0l-11.7894739-15.2514623l0,15.2514623l-8.7953218,0l0-38.5964919z  M538.4883017,618.5263154l1.0292398,0c3.3216375,0,7.2982457-0.2339181,7.2982457-5.0526317s-3.9766083-5.0526317-7.2982457-5.0526317l-1.0292398,0l0,10.1052633zM581.2836239,609.1228065l0-7.7192984l27.1345034,0l0,7.7192984l-9.1695908,0l0,30.8771935l-8.7953218,0l0-30.8771935l-9.1695908,0zM638.6812857,601.4035081l0,7.7192984l-13.2865499,0l0,7.6725148l12.7251464,0l0,7.7192984l-12.7251464,0l0,7.766082l13.2865499,0l0,7.7192984l-22.0818717,0l0-38.5964919l22.0818717,0zM657.5292391,601.4035081l0,38.5964919l-8.7953218,0l0-38.5964919l8.7953218,0zM704.260234,640l-11.3684213,0l-9.1228072-13.1461991l-9.1228072,13.1461991l-10.900585,0l14.5964915-20.7719302l-12.1637429-17.8245617l10.4795323,0l7.1111112,10.526316l7.1111112-10.526316l10.9473686,0l-12.6315792,17.8245617zM732.5584801,601.4035081l0,7.7192984l-13.2865499,0l0,7.6725148l12.7251464,0l0,7.7192984l-12.7251464,0l0,7.766082l13.2865499,0l0,7.7192984l-22.0818717,0l0-38.5964919l22.0818717,0zM751.4064335,601.4035081l0,38.5964919l-8.7953218,0l0-38.5964919l8.7953218,0zM762.0204687,601.4035081l13.8011698,0c7.1578949,0,12.5847955,3.883041,12.5847955,11.4619885c0,5.8011697-3.1812866,9.6842107-7.9064329,11.1812867l13.2865499,15.9532167l-11.1812867,0l-11.7894739-15.2514623l0,15.2514623l-8.7953218,0l0-38.5964919z  M770.8157905,618.5263154l1.0292398,0c3.3216375,0,7.2982457-0.2339181,7.2982457-5.0526317s-3.9766083-5.0526317-7.2982457-5.0526317l-1.0292398,0l0,10.1052633zM820.1198849,601.4035081l15.5789476,38.5964919l-9.4502926,0l-2.8538012-7.7192984l-14.6900587,0l-2.8538012,7.7192984l-9.4502926,0l15.5789476-38.5964919l8.140351,0z  M820.4005866,624.5614032l-4.3040936-11.2280704l-0.0935673,0l-4.3040936,11.2280704l8.7017545,0zM859.9678386,601.4035081l11.1812867,0c10.5730996,0,19.4619886,8.0467838,19.4619886,19.2748541c0,11.274854-8.8421054,19.3216378-19.4619886,19.3216378l-11.1812867,0l0-38.5964919z  M868.7631604,632.1403507l1.3567252,0c6.5029241,0,10.9473686-4.9590644,10.9941522-11.4152049c0-6.4561405-4.4444445-11.4619885-10.9941522-11.4619885l-1.3567252,0l0,22.8771934zM921.5760267,601.4035081l0,7.7192984l-13.2865499,0l0,7.6725148l12.7251464,0l0,7.7192984l-12.7251464,0l0,7.766082l13.2865499,0l0,7.7192984l-22.0818717,0l0-38.5964919l22.0818717,0zM981.3070218,640l-1.8245614-22.8771934l-0.2339181,0l-7.9064329,22.6432753l-5.2397662,0l-7.9064329-22.6432753l-0.2339181,0l-1.8245614,22.8771934l-8.7953218,0l3.4619884-38.5964919l9.3567253,0l8.5614037,22.2690062l8.5614037-22.2690062l9.3567253,0l3.4619884,38.5964919l-8.7953218,0zM1018.2602387,601.4035081l15.5789476,38.5964919l-9.4502926,0l-2.8538012-7.7192984l-14.6900587,0l-2.8538012,7.7192984l-9.4502926,0l15.5789476-38.5964919l8.140351,0z  M1018.5409405,624.5614032l-4.3040936-11.2280704l-0.0935673,0l-4.3040936,11.2280704l8.7017545,0zM1035.6578998,609.1228065l0-7.7192984l27.1345034,0l0,7.7192984l-9.1695908,0l0,30.8771935l-8.7953218,0l0-30.8771935l-9.1695908,0zM1069.195912,609.1228065l0-7.7192984l27.1345034,0l0,7.7192984l-9.1695908,0l0,30.8771935l-8.7953218,0l0-30.8771935l-9.1695908,0zM1101.2836317,620.6783622c0-11.274854,8.8421054-19.9766085,19.4619886-19.9766085c10.7134505,0,19.415205,8.7017545,19.415205,19.9766085s-8.3274855,20.0233922-19.415205,20.0233922c-11.4152049,0-19.4619886-8.7485382-19.4619886-20.0233922z  M1110.7807079,620.6783622c0,5.7543861,2.760234,11.5087721,9.9649125,11.5087721c7.017544,0,9.9181288-5.7543861,9.9181288-11.5087721s-3.0877194-11.5087721-9.9181288-11.5087721c-6.7836259,0-9.9649125,5.7543861-9.9649125,11.5087721zM1163.2660889,600.7017537c7.017544,0,11.9766084,3.6491229,11.9766084,3.6491229l-3.5555556,7.017544s-3.8362574-2.6666667-7.8128656-2.6666667c-2.9941521,0-4.5847954,1.3567252-4.5847954,3.4619884c0,2.1520468,3.6491229,3.6959065,8.0467838,5.5672516c4.3040936,1.8245614,9.0292399,5.4736843,9.0292399,10.526316c0,9.2163744-7.017544,12.4444447-14.5497079,12.4444447c-9.0292399,0-14.5029242-5.0994153-14.5029242-5.0994153l4.3976609-7.391813s5.1461989,4.3508773,9.4502926,4.3508773c1.9181287,0,5.5672516-0.1871345,5.5672516-3.7894738c0-2.8070176-4.1169591-4.0701755-8.7017545-6.3625732c-4.631579-2.2923977-7.3450294-5.8947369-7.3450294-9.9181288c0-7.2046785,6.3625732-11.7894739,12.5847955-11.7894739z"/>
</svg>
