<svg xmlns="http://www.w3.org/2000/svg" version="1.1" viewBox="0 0 1400 420">
  <title>
The titlepage for the Standard Ebooks edition of Lyrical Ballads, by William Wordsworth and Samuel Taylor Coleridge  </title>
  <!-- Loaded SVG font from path "./LeagueSpartan-Bold.svg" -->
  <path style="text-anchor: middle; letter-spacing: 5px" d="M251.2923904,52.8070162l0,61.754387l26.5730999,0l0,15.4385968l-44.1637435,0l0-77.1929838l17.5906436,0zM275.8479463,52.8070162l21.1461992,0l16.0935675,24.7017548l16.0935675-24.7017548l21.1461992,0l-28.4444449,42.5731002l0,34.6198836l-17.5906436,0l0-34.6198836zM358.1344974,52.8070162l27.6023397,0c14.3157897,0,25.1695911,7.766082,25.1695911,22.923977c0,11.6023394-6.3625732,19.3684214-15.8128658,22.3625735l26.5730999,31.9064333l-22.3625735,0l-23.5789478-30.5029245l0,30.5029245l-17.5906436,0l0-77.1929838z  M375.725141,87.0526308l2.0584796,0c6.643275,0,14.5964915-0.4678363,14.5964915-10.1052633s-7.9532165-10.1052633-14.5964915-10.1052633l-2.0584796,0l0,20.2105267zM447.7192942,52.8070162l0,77.1929838l-17.5906436,0l0-77.1929838l17.5906436,0zM502.0292366,114.093567c8.9824563,0,15.157895-4.7719299,15.157895-4.7719299l7.4853802,14.9707605s-8.6081873,7.1111112-25.3567256,7.1111112c-21.80117,0-41.8245621-17.7777781-41.8245621-39.8596498c0-22.175439,19.9298249-40.1403516,41.8245621-40.1403516c16.7485383,0,25.3567256,7.1111112,25.3567256,7.1111112l-7.4853802,14.9707605s-6.1754387-4.7719299-15.157895-4.7719299c-17.6842108,0-25.4502928,12.3508774-25.4502928,22.6432753c0,10.3859651,7.766082,22.7368425,25.4502928,22.7368425zM575.6140331,52.8070162l31.1578953,77.1929838l-18.9005851,0l-5.7076024-15.4385968l-29.3801175,0l-5.7076024,15.4385968l-18.9005851,0l31.1578953-77.1929838l16.280702,0z  M576.1754366,99.1228065l-8.6081873-22.4561407l-0.1871345,0l-8.6081873,22.4561407l17.4035091,0zM632.356724,52.8070162l0,61.754387l26.5730999,0l0,15.4385968l-44.1637435,0l0-77.1929838l17.5906436,0zM703.1754386,52.8070162l23.9532168,0c13.2865499,0,23.7660823,4.9590644,23.7660823,19.6491232c0,7.1111112-3.0877194,13.1929827-9.6374271,16.5614038c9.6374271,1.6842106,16.4678365,7.017544,16.4678365,19.4619886c0,12.7251464-9.2631581,21.5204682-25.2631583,21.5204682l-29.2865502,0l0-77.1929838z  M720.7660821,83.0292389l1.4035088,0c7.5789475,0,11.6959066-2.3391813,11.6959066-8.7953218c0-5.5204679-4.0233919-7.8596493-11.6959066-7.8596493l-1.4035088,0l0,16.6549711z  M720.7660821,116.4327483l5.5204679,0c8.3274855,0,12.9122809-2.5263158,12.9122809-8.6081873c0-7.1111112-4.5847954-9.6374271-12.9122809-9.6374271l-5.5204679,0l0,18.2456144zM807.8245631,52.8070162l31.1578953,77.1929838l-18.9005851,0l-5.7076024-15.4385968l-29.3801175,0l-5.7076024,15.4385968l-18.9005851,0l31.1578953-77.1929838l16.280702,0z  M808.3859666,99.1228065l-8.6081873-22.4561407l-0.1871345,0l-8.6081873,22.4561407l17.4035091,0zM864.5672541,52.8070162l0,61.754387l26.5730999,0l0,15.4385968l-44.1637435,0l0-77.1929838l17.5906436,0zM922.4327521,52.8070162l0,61.754387l26.5730999,0l0,15.4385968l-44.1637435,0l0-77.1929838l17.5906436,0zM1003.3157943,52.8070162l31.1578953,77.1929838l-18.9005851,0l-5.7076024-15.4385968l-29.3801175,0l-5.7076024,15.4385968l-18.9005851,0l31.1578953-77.1929838l16.280702,0z  M1003.8771979,99.1228065l-8.6081873-22.4561407l-0.1871345,0l-8.6081873,22.4561407l17.4035091,0zM1042.4678417,52.8070162l22.3625735,0c21.1461992,0,38.9239773,16.0935675,38.9239773,38.5497083c0,22.549708-17.6842108,38.6432755-38.9239773,38.6432755l-22.3625735,0l0-77.1929838z  M1060.0584853,114.2807015l2.7134503,0c13.0058482,0,21.8947372-9.9181288,21.9883045-22.8304098c0-12.9122809-8.888889-22.923977-21.9883045-22.923977l-2.7134503,0l0,45.7543868zM1143.0935744,51.4035074c14.035088,0,23.9532168,7.2982457,23.9532168,7.2982457l-7.1111112,14.035088s-7.6725148-5.3333334-15.6257313-5.3333334c-5.9883042,0-9.1695908,2.7134503-9.1695908,6.9239767c0,4.3040936,7.2982457,7.391813,16.0935675,11.1345031c8.6081873,3.6491229,18.0584798,10.9473686,18.0584798,21.0526319c0,18.4327489-14.035088,24.8888893-29.0994157,24.8888893c-18.0584798,0-29.0058485-10.1988306-29.0058485-10.1988306l8.7953218-14.783626s10.2923978,8.7017545,18.9005851,8.7017545c3.8362574,0,11.1345031-0.374269,11.1345031-7.5789475c0-5.6140352-8.2339183-8.140351-17.4035091-12.7251464c-9.2631581-4.5847954-14.6900587-11.7894739-14.6900587-19.8362577c0-14.409357,12.7251464-23.5789478,25.1695911-23.5789478z"/>
  <path style="text-anchor: middle; letter-spacing: 5px" d="M257.9912319,290l-9.2631578-32.4912278l-9.2631578,32.4912278l-14.6666665,0l-16.4912279-57.8947363l14.6666665,0l9.8947367,39.7192979l0.3508772,0l10.5263157-39.7192979l9.9649122,0l10.5263157,39.7192979l0.3508772,0l9.8947367-39.7192979l14.5964911,0l-16.4912279,57.8947363l-14.5964911,0zM310.4298279,232.1052637l0,57.8947363l-13.1929823,0l0-57.8947363l13.1929823,0zM337.0438628,232.1052637l0,46.315789l19.9298244,0l0,11.5789473l-33.1228067,0l0-57.8947363l13.1929823,0zM381.6929852,232.1052637l0,46.315789l19.9298244,0l0,11.5789473l-33.1228067,0l0-57.8947363l13.1929823,0zM426.3421076,232.1052637l0,57.8947363l-13.1929823,0l0-57.8947363l13.1929823,0zM469.1666687,232.1052637l23.3684208,57.8947363l-14.1754385,0l-4.2807017-11.5789473l-22.0350875,0l-4.2807017,11.5789473l-14.1754385,0l23.3684208-57.8947363l12.2105262,0z  M469.5877213,266.8421055l-6.4561403-16.8421051l-0.1403509,0l-6.4561403,16.8421051l13.0526315,0zM547.6403522,290l-2.7368421-34.3157891l-0.3508772,0l-11.859649,33.964912l-7.859649,0l-11.859649-33.964912l-0.3508772,0l-2.7368421,34.3157891l-13.1929823,0l5.1929824-57.8947363l14.0350876,0l12.8421051,33.4035085l12.8421051-33.4035085l14.0350876,0l5.1929824,57.8947363l-13.1929823,0zM633.7807024,290l-9.2631578-32.4912278l-9.2631578,32.4912278l-14.6666665,0l-16.4912279-57.8947363l14.6666665,0l9.8947367,39.7192979l0.3508772,0l10.5263157-39.7192979l9.9649122,0l10.5263157,39.7192979l0.3508772,0l9.8947367-39.7192979l14.5964911,0l-16.4912279,57.8947363l-14.5964911,0zM668.1842109,261.0175441c0-16.9122805,13.2631578-29.964912,29.1929822-29.964912c16.0701753,0,29.1228067,13.0526315,29.1228067,29.964912s-12.491228,30.0350874-29.1228067,30.0350874c-17.1228069,0-29.1929822-13.1228069-29.1929822-30.0350874z  M682.4298248,261.0175441c0,8.6315789,4.1403508,17.2631577,14.9473683,17.2631577c10.5263157,0,14.8771928-8.6315789,14.8771928-17.2631577s-4.6315789-17.2631577-14.8771928-17.2631577c-10.1754385,0-14.9473683,8.6315789-14.9473683,17.2631577zM737.3245611,232.1052637l20.7017542,0c10.736842,0,18.8771928,5.8245613,18.8771928,17.1929823c0,8.7017543-4.7719298,14.5263157-11.859649,16.7719297l19.9298244,23.9298243l-16.7719297,0l-17.6842104-22.8771928l0,22.8771928l-13.1929823,0l0-57.8947363z  M750.5175435,257.789474l1.5438596,0c4.9824561,0,10.9473683-0.3508772,10.9473683-7.5789473s-5.9649122-7.5789473-10.9473683-7.5789473l-1.5438596,0l0,15.1578946zM792.5701747,232.1052637l16.7719297,0c15.859649,0,29.1929822,12.0701753,29.1929822,28.9122804c0,16.9122805-13.2631578,28.9824559-29.1929822,28.9824559l-16.7719297,0l0-57.8947363z  M805.763157,278.2105264l2.0350877,0c9.7543859,0,16.4210525-7.4385964,16.4912279-17.1228069c0-9.6842104-6.6666666-17.1929823-16.4912279-17.1929823l-2.0350877,0l0,34.3157891zM869.2894722,231.0526321c10.5263157,0,17.9649121,5.4736842,17.9649121,5.4736842l-5.3333333,10.5263157s-5.7543859-4-11.7192981-4c-4.491228,0-6.8771929,2.0350877-6.8771929,5.1929824c0,3.2280701,5.4736842,5.5438596,12.0701753,8.3508771c6.4561403,2.7368421,13.5438595,8.2105262,13.5438595,15.7894735c0,13.8245613-10.5263157,18.6666665-21.8245612,18.6666665c-13.5438595,0-21.7543858-7.6491227-21.7543858-7.6491227l6.5964912-11.0877192s7.7192982,6.5263157,14.1754385,6.5263157c2.877193,0,8.3508771-0.2807018,8.3508771-5.6842105c0-4.2105263-6.1754385-6.1052631-13.0526315-9.5438596c-6.9473684-3.4385965-11.0175438-8.8421052-11.0175438-14.8771928c0-10.8070174,9.5438596-17.6842104,18.8771928-17.6842104zM938.5701734,290l-9.2631578-32.4912278l-9.2631578,32.4912278l-14.6666665,0l-16.4912279-57.8947363l14.6666665,0l9.8947367,39.7192979l0.3508772,0l10.5263157-39.7192979l9.9649122,0l10.5263157,39.7192979l0.3508772,0l9.8947367-39.7192979l14.5964911,0l-16.4912279,57.8947363l-14.5964911,0zM972.9736819,261.0175441c0-16.9122805,13.2631578-29.964912,29.1929822-29.964912c16.0701753,0,29.1228067,13.0526315,29.1228067,29.964912s-12.491228,30.0350874-29.1228067,30.0350874c-17.1228069,0-29.1929822-13.1228069-29.1929822-30.0350874z  M987.2192958,261.0175441c0,8.6315789,4.1403508,17.2631577,14.9473683,17.2631577c10.5263157,0,14.8771928-8.6315789,14.8771928-17.2631577s-4.6315789-17.2631577-14.8771928-17.2631577c-10.1754385,0-14.9473683,8.6315789-14.9473683,17.2631577zM1042.1140321,232.1052637l20.7017542,0c10.736842,0,18.8771928,5.8245613,18.8771928,17.1929823c0,8.7017543-4.7719298,14.5263157-11.859649,16.7719297l19.9298244,23.9298243l-16.7719297,0l-17.6842104-22.8771928l0,22.8771928l-13.1929823,0l0-57.8947363z  M1055.3070145,257.789474l1.5438596,0c4.9824561,0,10.9473683-0.3508772,10.9473683-7.5789473s-5.9649122-7.5789473-10.9473683-7.5789473l-1.5438596,0l0,15.1578946zM1090.9035054,243.684211l0-11.5789473l40.701754,0l0,11.5789473l-13.7543858,0l0,46.315789l-13.1929823,0l0-46.315789l-13.7543858,0zM1154.5701715,266.77193l0,23.22807l-13.1929823,0l0-57.8947363l13.1929823,0l0,23.0877191l18.6666665,0l0-23.0877191l13.1929823,0l0,57.8947363l-13.1929823,0l0-23.22807l-18.6666665,0z"/>
  <path style="text-anchor: middle; letter-spacing: 5px" d="M149.8771977,311.0526321c10.5263157,0,17.9649121,5.4736842,17.9649121,5.4736842l-5.3333333,10.5263157s-5.7543859-4-11.7192981-4c-4.491228,0-6.8771929,2.0350877-6.8771929,5.1929824c0,3.2280701,5.4736842,5.5438596,12.0701753,8.3508771c6.4561403,2.7368421,13.5438595,8.2105262,13.5438595,15.7894735c0,13.8245613-10.5263157,18.6666665-21.8245612,18.6666665c-13.5438595,0-21.7543858-7.6491227-21.7543858-7.6491227l6.5964912-11.0877192s7.7192982,6.5263157,14.1754385,6.5263157c2.877193,0,8.3508771-0.2807018,8.3508771-5.6842105c0-4.2105263-6.1754385-6.1052631-13.0526315-9.5438596c-6.9473684-3.4385965-11.0175438-8.8421052-11.0175438-14.8771928c0-10.8070174,9.5438596-17.6842104,18.8771928-17.6842104zM210.1052673,312.1052637l23.3684208,57.8947363l-14.1754385,0l-4.2807017-11.5789473l-22.0350875,0l-4.2807017,11.5789473l-14.1754385,0l23.3684208-57.8947363l12.2105262,0z  M210.52632,346.8421055l-6.4561403-16.8421051l-0.1403509,0l-6.4561403,16.8421051l13.0526315,0zM288.5789508,370l-2.7368421-34.3157891l-0.3508772,0l-11.859649,33.964912l-7.859649,0l-11.859649-33.964912l-0.3508772,0l-2.7368421,34.3157891l-13.1929823,0l5.1929824-57.8947363l14.0350876,0l12.8421051,33.4035085l12.8421051-33.4035085l14.0350876,0l5.1929824,57.8947363l-13.1929823,0zM356.5964941,312.1052637l0,37.333333c0,14.3157893-7.859649,21.6140349-22.596491,21.6140349s-22.596491-7.2982455-22.596491-21.6140349l0-37.333333l13.1929823,0l0,33.4736839c0,9.6842104,2.9473684,12.491228,9.4035087,12.491228s9.4035087-2.8070175,9.4035087-12.491228l0-33.4736839l13.1929823,0zM402.438599,312.1052637l0,11.5789473l-19.9298244,0l0,11.5087718l19.0877191,0l0,11.5789473l-19.0877191,0l0,11.6491227l19.9298244,0l0,11.5789473l-33.1228067,0l0-57.8947363l33.1228067,0zM428.2105286,312.1052637l0,46.315789l19.9298244,0l0,11.5789473l-33.1228067,0l0-57.8947363l13.1929823,0zM476.8070195,323.684211l0-11.5789473l40.701754,0l0,11.5789473l-13.7543858,0l0,46.315789l-13.1929823,0l0-46.315789l-13.7543858,0zM553.3157907,312.1052637l23.3684208,57.8947363l-14.1754385,0l-4.2807017-11.5789473l-22.0350875,0l-4.2807017,11.5789473l-14.1754385,0l23.3684208-57.8947363l12.2105262,0z  M553.7368434,346.8421055l-6.4561403-16.8421051l-0.1403509,0l-6.4561403,16.8421051l13.0526315,0zM571.2982467,312.1052637l15.859649,0l12.0701753,18.5263156l12.0701753-18.5263156l15.859649,0l-21.3333331,31.9298243l0,25.964912l-13.1929823,0l0-25.964912zM647.4561408,312.1052637l0,46.315789l19.9298244,0l0,11.5789473l-33.1228067,0l0-57.8947363l13.1929823,0zM676.3157897,341.0175441c0-16.9122805,13.2631578-29.964912,29.1929822-29.964912c16.0701753,0,29.1228067,13.0526315,29.1228067,29.964912s-12.491228,30.0350874-29.1228067,30.0350874c-17.1228069,0-29.1929822-13.1228069-29.1929822-30.0350874z  M690.5614036,341.0175441c0,8.6315789,4.1403508,17.2631577,14.9473683,17.2631577c10.5263157,0,14.8771928-8.6315789,14.8771928-17.2631577s-4.6315789-17.2631577-14.8771928-17.2631577c-10.1754385,0-14.9473683,8.6315789-14.9473683,17.2631577zM745.45614,312.1052637l20.7017542,0c10.736842,0,18.8771928,5.8245613,18.8771928,17.1929823c0,8.7017543-4.7719298,14.5263157-11.859649,16.7719297l19.9298244,23.9298243l-16.7719297,0l-17.6842104-22.8771928l0,22.8771928l-13.1929823,0l0-57.8947363z  M758.6491223,337.789474l1.5438596,0c4.9824561,0,10.9473683-0.3508772,10.9473683-7.5789473s-5.9649122-7.5789473-10.9473683-7.5789473l-1.5438596,0l0,15.1578946zM853.4210513,358.0701756c6.736842,0,11.3684209-3.5789473,11.3684209-3.5789473l5.614035,11.2280701s-6.4561403,5.3333333-19.0175437,5.3333333c-16.350877,0-31.3684208-13.3333332-31.3684208-29.8947366c0-16.6315788,14.9473683-30.1052629,31.3684208-30.1052629c12.5614034,0,19.0175437,5.3333333,19.0175437,5.3333333l-5.614035,11.2280701s-4.6315789-3.5789473-11.3684209-3.5789473c-13.2631578,0-19.0877191,9.2631578-19.0877191,16.982456c0,7.7894736,5.8245613,17.0526314,19.0877191,17.0526314zM877.8596476,341.0175441c0-16.9122805,13.2631578-29.964912,29.1929822-29.964912c16.0701753,0,29.1228067,13.0526315,29.1228067,29.964912s-12.491228,30.0350874-29.1228067,30.0350874c-17.1228069,0-29.1929822-13.1228069-29.1929822-30.0350874z  M892.1052615,341.0175441c0,8.6315789,4.1403508,17.2631577,14.9473683,17.2631577c10.5263157,0,14.8771928-8.6315789,14.8771928-17.2631577s-4.6315789-17.2631577-14.8771928-17.2631577c-10.1754385,0-14.9473683,8.6315789-14.9473683,17.2631577zM960.1929802,312.1052637l0,46.315789l19.9298244,0l0,11.5789473l-33.1228067,0l0-57.8947363l13.1929823,0zM1024.771927,312.1052637l0,11.5789473l-19.9298244,0l0,11.5087718l19.0877191,0l0,11.5789473l-19.0877191,0l0,11.6491227l19.9298244,0l0,11.5789473l-33.1228067,0l0-57.8947363l33.1228067,0zM1037.3508743,312.1052637l20.7017542,0c10.736842,0,18.8771928,5.8245613,18.8771928,17.1929823c0,8.7017543-4.7719298,14.5263157-11.859649,16.7719297l19.9298244,23.9298243l-16.7719297,0l-17.6842104-22.8771928l0,22.8771928l-13.1929823,0l0-57.8947363z  M1050.5438567,337.789474l1.5438596,0c4.9824561,0,10.9473683-0.3508772,10.9473683-7.5789473s-5.9649122-7.5789473-10.9473683-7.5789473l-1.5438596,0l0,15.1578946zM1105.7894702,312.1052637l0,57.8947363l-13.1929823,0l0-57.8947363l13.1929823,0zM1119.2105228,312.1052637l16.7719297,0c15.859649,0,29.1929822,12.0701753,29.1929822,28.9122804c0,16.9122805-13.2631578,28.9824559-29.1929822,28.9824559l-16.7719297,0l0-57.8947363z  M1132.4035051,358.2105264l2.0350877,0c9.7543859,0,16.4210525-7.4385964,16.4912279-17.1228069c0-9.6842104-6.6666666-17.1929823-16.4912279-17.1929823l-2.0350877,0l0,34.3157891zM1228.3508726,337.5789477l0,12.5614034c-3.1578947,14.6666665-15.3684209,20.9122805-26.7368419,20.9122805c-15.5789472,0-28.210526-13.4035086-28.210526-29.964912c0-16.6315788,11.9298244-30.0350874,28.210526-30.0350874c10.1754385,0,17.2631577,3.7894736,22.3157893,9.8947367l-8.6315789,9.4736841c-3.368421-5.4035087-7.7894736-7.4385964-12.9122806-7.4385964c-8.1403508,0-14.736842,8.0701754-14.736842,18.105263c0,9.8245613,6.5964912,17.8245612,14.736842,17.8245612c6.3157894,0,12.5614034-4.0701754,12.5614034-11.1578946l-13.3333332,0l0-10.1754385l26.7368419,0zM1272.2982407,312.1052637l0,11.5789473l-19.9298244,0l0,11.5087718l19.0877191,0l0,11.5789473l-19.0877191,0l0,11.6491227l19.9298244,0l0,11.5789473l-33.1228067,0l0-57.8947363l33.1228067,0z"/>
</svg>
